<svg width="150" height="32" viewBox="0 0 150 32" fill="none" xmlns="http://www.w3.org/2000/svg">
<g clip-path="url(#clip0_7_104)">
<rect width="150" height="32" rx="6" fill="#009FFF"/>
<mask id="path-3-inside-1_7_104" fill="white">
<path d="M0.5 0H35.5V32H0.5V0Z"/>
</mask>
<path d="M34.5 0V32H36.5V0H34.5Z" fill="white" fill-opacity="0.102" mask="url(#path-3-inside-1_7_104)"/>
<g clip-path="url(#clip1_7_104)">
<path d="M13.3818 8L11.5957 14.6625L16.1411 15.8792L16.7089 13.762L24.7817 15.9255L26 11.3817L13.3818 8ZM19.2911 18.2363L11.2183 16.0729L10 20.6183L22.6182 24L24.4043 17.3375L19.8589 16.1192L19.2911 18.2363Z" fill="white"/>
</g>
<path d="M56.4043 14.752H54.8809C54.8223 14.4264 54.7132 14.14 54.5537 13.8926C54.3942 13.6452 54.1989 13.4352 53.9678 13.2627C53.7367 13.0902 53.4779 12.96 53.1914 12.8721C52.9082 12.7842 52.6071 12.7402 52.2881 12.7402C51.7119 12.7402 51.196 12.8851 50.7402 13.1748C50.2878 13.4645 49.9297 13.8893 49.666 14.4492C49.4056 15.0091 49.2754 15.6927 49.2754 16.5C49.2754 17.3138 49.4056 18.0007 49.666 18.5605C49.9297 19.1204 50.2894 19.5436 50.7451 19.8301C51.2008 20.1165 51.7135 20.2598 52.2832 20.2598C52.599 20.2598 52.8984 20.2174 53.1816 20.1328C53.4681 20.0449 53.7269 19.9163 53.958 19.7471C54.1891 19.5778 54.3844 19.3711 54.5439 19.127C54.7067 18.8796 54.819 18.5964 54.8809 18.2773L56.4043 18.2822C56.3229 18.7738 56.165 19.2262 55.9307 19.6396C55.6995 20.0498 55.4017 20.4046 55.0371 20.7041C54.6758 21.0003 54.2624 21.2298 53.7969 21.3926C53.3314 21.5553 52.8236 21.6367 52.2734 21.6367C51.4076 21.6367 50.6361 21.4316 49.959 21.0215C49.2819 20.6081 48.748 20.0173 48.3574 19.249C47.9701 18.4808 47.7764 17.5645 47.7764 16.5C47.7764 15.4323 47.9717 14.516 48.3623 13.751C48.7529 12.9827 49.2868 12.3936 49.9639 11.9834C50.641 11.57 51.4108 11.3633 52.2734 11.3633C52.804 11.3633 53.2988 11.4398 53.7578 11.5928C54.2201 11.7425 54.6351 11.9639 55.0029 12.2568C55.3708 12.5465 55.6751 12.9014 55.916 13.3213C56.1569 13.738 56.3197 14.2148 56.4043 14.752ZM58.23 21.5V14H59.6412V15.1914H59.7193C59.856 14.7878 60.0969 14.4704 60.4419 14.2393C60.7903 14.0049 61.1841 13.8877 61.6236 13.8877C61.7147 13.8877 61.8222 13.891 61.9458 13.8975C62.0728 13.904 62.1721 13.9121 62.2437 13.9219V15.3184C62.1851 15.3021 62.0809 15.2842 61.9312 15.2646C61.7815 15.2419 61.6317 15.2305 61.482 15.2305C61.1369 15.2305 60.8293 15.3037 60.5591 15.4502C60.2922 15.5934 60.0806 15.7936 59.9244 16.0508C59.7681 16.3047 59.69 16.5944 59.69 16.9199V21.5H58.23ZM66.6085 21.6514C65.8696 21.6514 65.2332 21.4935 64.6993 21.1777C64.1687 20.8587 63.7586 20.4111 63.4688 19.835C63.1824 19.2555 63.0392 18.5768 63.0392 17.7988C63.0392 17.0306 63.1824 16.3535 63.4688 15.7676C63.7586 15.1816 64.1622 14.7243 64.6798 14.3955C65.2006 14.0667 65.8093 13.9023 66.506 13.9023C66.9291 13.9023 67.3393 13.9723 67.7364 14.1123C68.1336 14.2523 68.49 14.472 68.8058 14.7715C69.1215 15.071 69.3705 15.46 69.5528 15.9385C69.7351 16.4137 69.8263 16.9915 69.8263 17.6719V18.1895H63.8644V17.0957H68.3956C68.3956 16.7116 68.3175 16.3714 68.1612 16.0752C68.005 15.7757 67.7853 15.5397 67.5021 15.3672C67.2221 15.1947 66.8933 15.1084 66.5157 15.1084C66.1056 15.1084 65.7475 15.2093 65.4415 15.4111C65.1388 15.6097 64.9044 15.8701 64.7384 16.1924C64.5756 16.5114 64.4942 16.8581 64.4942 17.2324V18.0869C64.4942 18.5882 64.5821 19.0146 64.7579 19.3662C64.9369 19.7178 65.186 19.9863 65.505 20.1719C65.824 20.3542 66.1967 20.4453 66.6231 20.4453C66.8998 20.4453 67.1521 20.4062 67.38 20.3281C67.6078 20.2467 67.8048 20.1263 67.9708 19.9668C68.1368 19.8073 68.2638 19.6104 68.3517 19.376L69.7335 19.625C69.6228 20.0319 69.4243 20.3883 69.1378 20.6943C68.8546 20.9971 68.4981 21.2331 68.0685 21.4023C67.642 21.5684 67.1554 21.6514 66.6085 21.6514ZM73.7663 21.666C73.291 21.666 72.8613 21.5781 72.4772 21.4023C72.0931 21.2233 71.7887 20.9645 71.5641 20.626C71.3428 20.2874 71.2321 19.8724 71.2321 19.3809C71.2321 18.9577 71.3135 18.6094 71.4762 18.3359C71.639 18.0625 71.8587 17.846 72.1354 17.6865C72.4121 17.527 72.7213 17.4066 73.0631 17.3252C73.4049 17.2438 73.7532 17.182 74.1081 17.1396C74.5573 17.0876 74.9219 17.0452 75.2018 17.0127C75.4818 16.9769 75.6852 16.9199 75.8122 16.8418C75.9391 16.7637 76.0026 16.6367 76.0026 16.4609V16.4268C76.0026 16.0003 75.8821 15.6699 75.6413 15.4355C75.4036 15.2012 75.0488 15.084 74.5768 15.084C74.0853 15.084 73.6979 15.193 73.4147 15.4111C73.1347 15.626 72.9411 15.8652 72.8336 16.1289L71.4616 15.8164C71.6243 15.3607 71.862 14.9928 72.1745 14.7129C72.4902 14.4297 72.8532 14.2246 73.2633 14.0977C73.6735 13.9674 74.1048 13.9023 74.5573 13.9023C74.8568 13.9023 75.1741 13.9382 75.5094 14.0098C75.848 14.0781 76.1637 14.2051 76.4567 14.3906C76.7529 14.5762 76.9954 14.8415 77.1842 15.1865C77.373 15.5283 77.4674 15.9727 77.4674 16.5195V21.5H76.0417V20.4746H75.9831C75.8887 20.6634 75.7471 20.849 75.5583 21.0312C75.3695 21.2135 75.1269 21.3649 74.8307 21.4854C74.5345 21.6058 74.1797 21.666 73.7663 21.666ZM74.0836 20.4941C74.4873 20.4941 74.8323 20.4144 75.1188 20.2549C75.4085 20.0954 75.6282 19.887 75.778 19.6299C75.931 19.3695 76.0075 19.0911 76.0075 18.7949V17.8281C75.9554 17.8802 75.8545 17.929 75.7047 17.9746C75.5583 18.0169 75.3906 18.0544 75.2018 18.0869C75.013 18.1162 74.8291 18.1439 74.65 18.1699C74.471 18.1927 74.3213 18.2122 74.2008 18.2285C73.9176 18.2643 73.6588 18.3245 73.4245 18.4092C73.1933 18.4938 73.0078 18.6159 72.8678 18.7754C72.7311 18.9316 72.6627 19.14 72.6627 19.4004C72.6627 19.7617 72.7962 20.0352 73.0631 20.2207C73.3301 20.403 73.6702 20.4941 74.0836 20.4941ZM83.0505 14V15.1719H78.9538V14H83.0505ZM80.0524 12.2031H81.5124V19.2979C81.5124 19.5811 81.5547 19.7943 81.6394 19.9375C81.724 20.0775 81.833 20.1735 81.9665 20.2256C82.1032 20.2744 82.2513 20.2988 82.4108 20.2988C82.528 20.2988 82.6306 20.2907 82.7185 20.2744C82.8063 20.2581 82.8747 20.2451 82.9235 20.2354L83.1872 21.4414C83.1026 21.474 82.9821 21.5065 82.8259 21.5391C82.6696 21.5749 82.4743 21.5944 82.2399 21.5977C81.8558 21.6042 81.4978 21.5358 81.1657 21.3926C80.8337 21.2493 80.5651 21.028 80.3601 20.7285C80.155 20.429 80.0524 20.0531 80.0524 19.6006V12.2031ZM87.8816 21.6514C87.1785 21.6514 86.5649 21.4902 86.0408 21.168C85.5167 20.8457 85.1098 20.3949 84.8201 19.8154C84.5304 19.236 84.3855 18.5589 84.3855 17.7842C84.3855 17.0062 84.5304 16.3258 84.8201 15.7432C85.1098 15.1605 85.5167 14.708 86.0408 14.3857C86.5649 14.0635 87.1785 13.9023 87.8816 13.9023C88.5847 13.9023 89.1983 14.0635 89.7224 14.3857C90.2465 14.708 90.6534 15.1605 90.9431 15.7432C91.2328 16.3258 91.3777 17.0062 91.3777 17.7842C91.3777 18.5589 91.2328 19.236 90.9431 19.8154C90.6534 20.3949 90.2465 20.8457 89.7224 21.168C89.1983 21.4902 88.5847 21.6514 87.8816 21.6514ZM87.8865 20.4258C88.3422 20.4258 88.7198 20.3053 89.0193 20.0645C89.3188 19.8236 89.5401 19.5029 89.6833 19.1025C89.8298 18.7021 89.9031 18.2611 89.9031 17.7793C89.9031 17.3008 89.8298 16.8613 89.6833 16.4609C89.5401 16.0573 89.3188 15.7334 89.0193 15.4893C88.7198 15.2451 88.3422 15.123 87.8865 15.123C87.4275 15.123 87.0466 15.2451 86.7439 15.4893C86.4444 15.7334 86.2214 16.0573 86.075 16.4609C85.9317 16.8613 85.8601 17.3008 85.8601 17.7793C85.8601 18.2611 85.9317 18.7021 86.075 19.1025C86.2214 19.5029 86.4444 19.8236 86.7439 20.0645C87.0466 20.3053 87.4275 20.4258 87.8865 20.4258ZM93.1448 21.5V14H94.556V15.1914H94.6341C94.7708 14.7878 95.0117 14.4704 95.3567 14.2393C95.705 14.0049 96.0989 13.8877 96.5384 13.8877C96.6295 13.8877 96.7369 13.891 96.8606 13.8975C96.9876 13.904 97.0869 13.9121 97.1585 13.9219V15.3184C97.0999 15.3021 96.9957 15.2842 96.846 15.2646C96.6963 15.2419 96.5465 15.2305 96.3968 15.2305C96.0517 15.2305 95.7441 15.3037 95.4739 15.4502C95.207 15.5934 94.9954 15.7936 94.8392 16.0508C94.6829 16.3047 94.6048 16.5944 94.6048 16.9199V21.5H93.1448ZM107.907 14.127C107.855 13.6647 107.64 13.3066 107.263 13.0527C106.885 12.7956 106.41 12.667 105.837 12.667C105.427 12.667 105.072 12.7321 104.772 12.8623C104.473 12.9893 104.24 13.165 104.074 13.3896C103.911 13.611 103.83 13.8633 103.83 14.1465C103.83 14.3841 103.885 14.5892 103.996 14.7617C104.11 14.9342 104.258 15.0791 104.44 15.1963C104.626 15.3102 104.824 15.4062 105.036 15.4844C105.248 15.5592 105.451 15.6211 105.646 15.6699L106.623 15.9238C106.942 16.002 107.269 16.1077 107.604 16.2412C107.94 16.3747 108.251 16.5505 108.537 16.7686C108.823 16.9867 109.055 17.2568 109.23 17.5791C109.409 17.9014 109.499 18.2871 109.499 18.7363C109.499 19.3027 109.352 19.8057 109.059 20.2451C108.77 20.6846 108.348 21.0313 107.795 21.2852C107.245 21.5391 106.579 21.666 105.798 21.666C105.049 21.666 104.401 21.5472 103.854 21.3096C103.308 21.0719 102.879 20.735 102.57 20.2988C102.261 19.8594 102.09 19.3385 102.058 18.7363H103.571C103.6 19.0977 103.718 19.3988 103.923 19.6396C104.131 19.8773 104.396 20.0547 104.719 20.1719C105.044 20.2858 105.401 20.3428 105.788 20.3428C106.214 20.3428 106.594 20.276 106.926 20.1426C107.261 20.0059 107.525 19.8171 107.717 19.5762C107.909 19.332 108.005 19.0472 108.005 18.7217C108.005 18.4255 107.92 18.1829 107.751 17.9941C107.585 17.8053 107.359 17.6491 107.072 17.5254C106.789 17.4017 106.468 17.2926 106.11 17.1982L104.929 16.876C104.128 16.6579 103.493 16.3372 103.024 15.9141C102.559 15.4909 102.326 14.931 102.326 14.2344C102.326 13.6582 102.482 13.1553 102.795 12.7256C103.107 12.2959 103.53 11.9622 104.064 11.7246C104.598 11.4837 105.2 11.3633 105.871 11.3633C106.548 11.3633 107.145 11.4821 107.663 11.7197C108.184 11.9574 108.594 12.2845 108.893 12.7012C109.193 13.1146 109.349 13.5898 109.362 14.127H107.907ZM114.823 14V15.1719H110.727V14H114.823ZM111.825 12.2031H113.285V19.2979C113.285 19.5811 113.327 19.7943 113.412 19.9375C113.497 20.0775 113.606 20.1735 113.739 20.2256C113.876 20.2744 114.024 20.2988 114.184 20.2988C114.301 20.2988 114.403 20.2907 114.491 20.2744C114.579 20.2581 114.647 20.2451 114.696 20.2354L114.96 21.4414C114.875 21.474 114.755 21.5065 114.599 21.5391C114.442 21.5749 114.247 21.5944 114.013 21.5977C113.629 21.6042 113.27 21.5358 112.938 21.3926C112.606 21.2493 112.338 21.028 112.133 20.7285C111.928 20.429 111.825 20.0531 111.825 19.6006V12.2031ZM119.654 21.6514C118.951 21.6514 118.338 21.4902 117.813 21.168C117.289 20.8457 116.882 20.3949 116.593 19.8154C116.303 19.236 116.158 18.5589 116.158 17.7842C116.158 17.0062 116.303 16.3258 116.593 15.7432C116.882 15.1605 117.289 14.708 117.813 14.3857C118.338 14.0635 118.951 13.9023 119.654 13.9023C120.357 13.9023 120.971 14.0635 121.495 14.3857C122.019 14.708 122.426 15.1605 122.716 15.7432C123.006 16.3258 123.15 17.0062 123.15 17.7842C123.15 18.5589 123.006 19.236 122.716 19.8154C122.426 20.3949 122.019 20.8457 121.495 21.168C120.971 21.4902 120.357 21.6514 119.654 21.6514ZM119.659 20.4258C120.115 20.4258 120.493 20.3053 120.792 20.0645C121.091 19.8236 121.313 19.5029 121.456 19.1025C121.603 18.7021 121.676 18.2611 121.676 17.7793C121.676 17.3008 121.603 16.8613 121.456 16.4609C121.313 16.0573 121.091 15.7334 120.792 15.4893C120.493 15.2451 120.115 15.123 119.659 15.123C119.2 15.123 118.819 15.2451 118.517 15.4893C118.217 15.7334 117.994 16.0573 117.848 16.4609C117.704 16.8613 117.633 17.3008 117.633 17.7793C117.633 18.2611 117.704 18.7021 117.848 19.1025C117.994 19.5029 118.217 19.8236 118.517 20.0645C118.819 20.3053 119.2 20.4258 119.659 20.4258ZM124.918 21.5V14H126.329V15.1914H126.407C126.544 14.7878 126.784 14.4704 127.129 14.2393C127.478 14.0049 127.872 13.8877 128.311 13.8877C128.402 13.8877 128.51 13.891 128.633 13.8975C128.76 13.904 128.86 13.9121 128.931 13.9219V15.3184C128.873 15.3021 128.768 15.2842 128.619 15.2646C128.469 15.2419 128.319 15.2305 128.169 15.2305C127.824 15.2305 127.517 15.3037 127.247 15.4502C126.98 15.5934 126.768 15.7936 126.612 16.0508C126.456 16.3047 126.377 16.5944 126.377 16.9199V21.5H124.918ZM133.296 21.6514C132.557 21.6514 131.921 21.4935 131.387 21.1777C130.856 20.8587 130.446 20.4111 130.156 19.835C129.87 19.2555 129.727 18.5768 129.727 17.7988C129.727 17.0306 129.87 16.3535 130.156 15.7676C130.446 15.1816 130.85 14.7243 131.367 14.3955C131.888 14.0667 132.497 13.9023 133.193 13.9023C133.617 13.9023 134.027 13.9723 134.424 14.1123C134.821 14.2523 135.178 14.472 135.493 14.7715C135.809 15.071 136.058 15.46 136.24 15.9385C136.423 16.4137 136.514 16.9915 136.514 17.6719V18.1895H130.552V17.0957H135.083C135.083 16.7116 135.005 16.3714 134.849 16.0752C134.692 15.7757 134.473 15.5397 134.19 15.3672C133.91 15.1947 133.581 15.1084 133.203 15.1084C132.793 15.1084 132.435 15.2093 132.129 15.4111C131.826 15.6097 131.592 15.8701 131.426 16.1924C131.263 16.5114 131.182 16.8581 131.182 17.2324V18.0869C131.182 18.5882 131.27 19.0146 131.445 19.3662C131.624 19.7178 131.873 19.9863 132.192 20.1719C132.511 20.3542 132.884 20.4453 133.311 20.4453C133.587 20.4453 133.84 20.4062 134.067 20.3281C134.295 20.2467 134.492 20.1263 134.658 19.9668C134.824 19.8073 134.951 19.6104 135.039 19.376L136.421 19.625C136.31 20.0319 136.112 20.3883 135.825 20.6943C135.542 20.9971 135.186 21.2331 134.756 21.4023C134.33 21.5684 133.843 21.6514 133.296 21.6514Z" fill="white"/>
</g>
<rect x="0.5" y="0.5" width="149" height="31" rx="5.5" stroke="white" stroke-opacity="0.102"/>
<defs>
<clipPath id="clip0_7_104">
<rect width="150" height="32" rx="6" fill="white"/>
</clipPath>
<clipPath id="clip1_7_104">
<rect width="16" height="16" fill="white" transform="translate(10 8)"/>
</clipPath>
</defs>
</svg>
