<svg width="111" height="32" viewBox="0 0 111 32" fill="none" xmlns="http://www.w3.org/2000/svg">
<g clip-path="url(#clip0_7_141)">
<rect width="111" height="32" rx="6" fill="#5865F2"/>
<mask id="path-3-inside-1_7_141" fill="white">
<path d="M0.5 0H35.5V32H0.5V0Z"/>
</mask>
<path d="M34.5 0V32H36.5V0H34.5Z" fill="white" fill-opacity="0.102" mask="url(#path-3-inside-1_7_141)"/>
<path d="M23.5447 10.9065C22.5249 10.4386 21.4313 10.0939 20.2879 9.89643C20.2671 9.89262 20.2463 9.90214 20.2356 9.92119C20.0949 10.1713 19.9392 10.4977 19.8301 10.7542C18.6003 10.57 17.3768 10.57 16.1722 10.7542C16.0631 10.492 15.9017 10.1713 15.7604 9.92119C15.7497 9.90278 15.7289 9.89325 15.708 9.89643C14.5653 10.0932 13.4717 10.438 12.4513 10.9065C12.4425 10.9104 12.4349 10.9167 12.4298 10.925C10.3556 14.0239 9.78737 17.0466 10.0661 20.0319C10.0674 20.0465 10.0756 20.0604 10.0869 20.0693C11.4555 21.0743 12.7811 21.6845 14.0822 22.0889C14.103 22.0953 14.1251 22.0876 14.1383 22.0705C14.4461 21.6502 14.7204 21.207 14.9557 20.741C14.9695 20.7137 14.9563 20.6814 14.9279 20.6706C14.4928 20.5055 14.0784 20.3042 13.6798 20.0757C13.6483 20.0573 13.6458 20.0122 13.6748 19.9906C13.7587 19.9277 13.8425 19.8623 13.9226 19.7963C13.9371 19.7842 13.9573 19.7817 13.9743 19.7893C16.5929 20.9848 19.4277 20.9848 22.0153 19.7893C22.0323 19.7811 22.0525 19.7836 22.0677 19.7957C22.1478 19.8617 22.2316 19.9277 22.3161 19.9906C22.3451 20.0122 22.3433 20.0573 22.3117 20.0757C21.9131 20.3087 21.4988 20.5055 21.063 20.6699C21.0346 20.6807 21.022 20.7137 21.0359 20.741C21.2762 21.2064 21.5505 21.6496 21.8526 22.0699C21.8652 22.0876 21.8879 22.0953 21.9087 22.0889C23.2161 21.6845 24.5418 21.0743 25.9103 20.0693C25.9223 20.0604 25.9298 20.0471 25.9311 20.0325C26.2647 16.5812 25.3723 13.5832 23.5655 10.9256C23.5611 10.9167 23.5535 10.9104 23.5447 10.9065ZM15.3467 18.2142C14.5583 18.2142 13.9088 17.4904 13.9088 16.6015C13.9088 15.7127 14.5457 14.9889 15.3467 14.9889C16.1539 14.9889 16.7972 15.719 16.7846 16.6015C16.7846 17.4904 16.1476 18.2142 15.3467 18.2142ZM20.6632 18.2142C19.8748 18.2142 19.2253 17.4904 19.2253 16.6015C19.2253 15.7127 19.8622 14.9889 20.6632 14.9889C21.4704 14.9889 22.1137 15.719 22.1011 16.6015C22.1011 17.4904 21.4704 18.2142 20.6632 18.2142Z" fill="white"/>
<path d="M51.3359 21.5H48.0986V11.5H51.4385C52.4183 11.5 53.2598 11.7002 53.9629 12.1006C54.666 12.4977 55.2048 13.069 55.5791 13.8145C55.9567 14.5566 56.1455 15.4469 56.1455 16.4854C56.1455 17.527 55.9551 18.4222 55.5742 19.1709C55.1966 19.9196 54.6497 20.4958 53.9336 20.8994C53.2174 21.2998 52.3516 21.5 51.3359 21.5ZM49.6074 20.1816H51.2529C52.0146 20.1816 52.6478 20.0384 53.1523 19.752C53.6569 19.4622 54.0345 19.0439 54.2852 18.4971C54.5358 17.9469 54.6611 17.2764 54.6611 16.4854C54.6611 15.7008 54.5358 15.0352 54.2852 14.4883C54.0378 13.9414 53.6683 13.5264 53.1768 13.2432C52.6852 12.96 52.0749 12.8184 51.3457 12.8184H49.6074V20.1816ZM58.042 21.5V14H59.502V21.5H58.042ZM58.7793 12.8428C58.5254 12.8428 58.3073 12.7581 58.125 12.5889C57.946 12.4163 57.8565 12.2113 57.8565 11.9736C57.8565 11.7327 57.946 11.5277 58.125 11.3584C58.3073 11.1859 58.5254 11.0996 58.7793 11.0996C59.0333 11.0996 59.2497 11.1859 59.4288 11.3584C59.6111 11.5277 59.7022 11.7327 59.7022 11.9736C59.7022 12.2113 59.6111 12.4163 59.4288 12.5889C59.2497 12.7581 59.0333 12.8428 58.7793 12.8428ZM67.2237 15.8311L65.9005 16.0654C65.8451 15.8962 65.7573 15.735 65.6368 15.582C65.5196 15.429 65.3601 15.3037 65.1583 15.2061C64.9565 15.1084 64.7042 15.0596 64.4015 15.0596C63.9881 15.0596 63.643 15.1523 63.3663 15.3379C63.0896 15.5202 62.9513 15.7562 62.9513 16.0459C62.9513 16.2965 63.044 16.4984 63.2296 16.6514C63.4151 16.8044 63.7146 16.9297 64.128 17.0273L65.3194 17.3008C66.0095 17.4603 66.5239 17.7061 66.8624 18.0381C67.2009 18.3701 67.3702 18.8014 67.3702 19.332C67.3702 19.7812 67.24 20.1816 66.9796 20.5332C66.7224 20.8815 66.3627 21.1549 65.9005 21.3535C65.4415 21.5521 64.9093 21.6514 64.3038 21.6514C63.464 21.6514 62.7787 21.4723 62.2481 21.1143C61.7175 20.7529 61.392 20.2402 61.2716 19.5762L62.6827 19.3613C62.7706 19.7292 62.9513 20.0075 63.2247 20.1963C63.4981 20.3818 63.8546 20.4746 64.294 20.4746C64.7726 20.4746 65.155 20.3753 65.4415 20.1768C65.728 19.9749 65.8712 19.7292 65.8712 19.4395C65.8712 19.2051 65.7833 19.0081 65.6075 18.8486C65.435 18.6891 65.1697 18.5687 64.8116 18.4873L63.5421 18.209C62.8422 18.0495 62.3246 17.7956 61.9894 17.4473C61.6573 17.099 61.4913 16.6579 61.4913 16.124C61.4913 15.6813 61.615 15.2939 61.8624 14.9619C62.1098 14.6299 62.4516 14.3711 62.8878 14.1855C63.324 13.9967 63.8237 13.9023 64.3868 13.9023C65.1974 13.9023 65.8354 14.0781 66.3009 14.4297C66.7664 14.778 67.074 15.2451 67.2237 15.8311ZM72.2721 21.6514C71.5462 21.6514 70.9212 21.487 70.3971 21.1582C69.8763 20.8262 69.4759 20.3688 69.1959 19.7861C68.916 19.2035 68.776 18.5361 68.776 17.7842C68.776 17.0225 68.9193 16.3503 69.2057 15.7676C69.4922 15.1816 69.8958 14.7243 70.4167 14.3955C70.9375 14.0667 71.5511 13.9023 72.2575 13.9023C72.8271 13.9023 73.3349 14.0081 73.7809 14.2197C74.2269 14.4281 74.5866 14.721 74.86 15.0986C75.1367 15.4762 75.3011 15.9173 75.3532 16.4219H73.9323C73.8542 16.0703 73.6751 15.7676 73.3952 15.5137C73.1185 15.2598 72.7474 15.1328 72.2819 15.1328C71.875 15.1328 71.5185 15.2402 71.2125 15.4551C70.9098 15.6667 70.6738 15.9694 70.5045 16.3633C70.3353 16.7539 70.2506 17.2161 70.2506 17.75C70.2506 18.2969 70.3336 18.7689 70.4997 19.166C70.6657 19.5632 70.9 19.8708 71.2028 20.0889C71.5088 20.307 71.8685 20.416 72.2819 20.416C72.5586 20.416 72.8092 20.3656 73.0338 20.2646C73.2617 20.1605 73.4521 20.0124 73.6051 19.8203C73.7614 19.6283 73.8704 19.3971 73.9323 19.127H75.3532C75.3011 19.612 75.1432 20.0449 74.8795 20.4258C74.6159 20.8066 74.2627 21.1061 73.82 21.3242C73.3805 21.5423 72.8646 21.6514 72.2721 21.6514ZM80.2111 21.6514C79.508 21.6514 78.8944 21.4902 78.3703 21.168C77.8462 20.8457 77.4393 20.3949 77.1496 19.8154C76.8599 19.236 76.715 18.5589 76.715 17.7842C76.715 17.0062 76.8599 16.3258 77.1496 15.7432C77.4393 15.1605 77.8462 14.708 78.3703 14.3857C78.8944 14.0635 79.508 13.9023 80.2111 13.9023C80.9143 13.9023 81.5279 14.0635 82.052 14.3857C82.576 14.708 82.9829 15.1605 83.2727 15.7432C83.5624 16.3258 83.7072 17.0062 83.7072 17.7842C83.7072 18.5589 83.5624 19.236 83.2727 19.8154C82.9829 20.3949 82.576 20.8457 82.052 21.168C81.5279 21.4902 80.9143 21.6514 80.2111 21.6514ZM80.216 20.4258C80.6717 20.4258 81.0493 20.3053 81.3488 20.0645C81.6483 19.8236 81.8697 19.5029 82.0129 19.1025C82.1594 18.7021 82.2326 18.2611 82.2326 17.7793C82.2326 17.3008 82.1594 16.8613 82.0129 16.4609C81.8697 16.0573 81.6483 15.7334 81.3488 15.4893C81.0493 15.2451 80.6717 15.123 80.216 15.123C79.757 15.123 79.3762 15.2451 79.0734 15.4893C78.774 15.7334 78.551 16.0573 78.4045 16.4609C78.2613 16.8613 78.1896 17.3008 78.1896 17.7793C78.1896 18.2611 78.2613 18.7021 78.4045 19.1025C78.551 19.5029 78.774 19.8236 79.0734 20.0645C79.3762 20.3053 79.757 20.4258 80.216 20.4258ZM85.4744 21.5V14H86.8855V15.1914H86.9636C87.1003 14.7878 87.3412 14.4704 87.6863 14.2393C88.0346 14.0049 88.4285 13.8877 88.8679 13.8877C88.9591 13.8877 89.0665 13.891 89.1902 13.8975C89.3171 13.904 89.4164 13.9121 89.488 13.9219V15.3184C89.4294 15.3021 89.3253 15.2842 89.1755 15.2646C89.0258 15.2419 88.8761 15.2305 88.7263 15.2305C88.3813 15.2305 88.0736 15.3037 87.8035 15.4502C87.5365 15.5934 87.325 15.7936 87.1687 16.0508C87.0125 16.3047 86.9343 16.5944 86.9343 16.9199V21.5H85.4744ZM93.428 21.6465C92.8226 21.6465 92.2822 21.4919 91.8069 21.1826C91.3349 20.8701 90.9638 20.4258 90.6937 19.8496C90.4267 19.2702 90.2933 18.5752 90.2933 17.7646C90.2933 16.9541 90.4284 16.2607 90.6985 15.6846C90.972 15.1084 91.3463 14.6673 91.8216 14.3613C92.2968 14.0553 92.8356 13.9023 93.4378 13.9023C93.9033 13.9023 94.2776 13.9805 94.5608 14.1367C94.8473 14.2897 95.0687 14.4687 95.2249 14.6738C95.3844 14.8789 95.5081 15.0596 95.596 15.2158H95.6839V11.5H97.1438V21.5H95.7181V20.333H95.596C95.5081 20.4925 95.3812 20.6748 95.2151 20.8799C95.0524 21.085 94.8278 21.264 94.5413 21.417C94.2549 21.57 93.8838 21.6465 93.428 21.6465ZM93.7503 20.4014C94.1702 20.4014 94.525 20.2907 94.8147 20.0693C95.1077 19.8447 95.3291 19.5339 95.4788 19.1367C95.6318 18.7396 95.7083 18.2773 95.7083 17.75C95.7083 17.2292 95.6334 16.7734 95.4837 16.3828C95.334 15.9922 95.1142 15.6878 94.8245 15.4697C94.5348 15.2516 94.1767 15.1426 93.7503 15.1426C93.3108 15.1426 92.9446 15.2565 92.6517 15.4844C92.3587 15.7122 92.1373 16.0231 91.9876 16.417C91.8411 16.8109 91.7679 17.2552 91.7679 17.75C91.7679 18.2513 91.8427 18.7021 91.9925 19.1025C92.1422 19.5029 92.3636 19.8203 92.6565 20.0547C92.9528 20.2858 93.3174 20.4014 93.7503 20.4014Z" fill="white"/>
</g>
<rect x="0.5" y="0.5" width="110" height="31" rx="5.5" stroke="white" stroke-opacity="0.102"/>
<defs>
<clipPath id="clip0_7_141">
<rect width="111" height="32" rx="6" fill="white"/>
</clipPath>
</defs>
</svg>
